<svg width="24" height="24" viewBox="0 0 24 24" fill="none" xmlns="http://www.w3.org/2000/svg">
    <path fill-rule="evenodd" clip-rule="evenodd" d="M10 2.6998C9.65527 2.6998 9.32461 2.83677 9.08081 3.08057C8.83701 3.32436 8.70005 3.65502 8.70005 3.9998V5.2998H15.3V3.9998C15.3 3.65502 15.1631 3.32436 14.9193 3.08057C14.6755 2.83677 14.3448 2.6998 14 2.6998H10ZM16.7 5.2998V3.9998C16.7 3.28372 16.4156 2.59696 15.9092 2.09062C15.4029 1.58427 14.7161 1.2998 14 1.2998H10C9.28396 1.2998 8.59721 1.58427 8.09086 2.09062C7.58451 2.59696 7.30005 3.28372 7.30005 3.9998V5.2998H3.00005C2.61345 5.2998 2.30005 5.6132 2.30005 5.9998C2.30005 6.3864 2.61345 6.6998 3.00005 6.6998H4.30005V19.9998C4.30005 20.7159 4.58451 21.4026 5.09086 21.909C5.59721 22.4153 6.28396 22.6998 7.00005 22.6998H17C17.7161 22.6998 18.4029 22.4153 18.9092 21.909C19.4156 21.4026 19.7001 20.7159 19.7001 19.9998V6.6998H21C21.3866 6.6998 21.7001 6.3864 21.7001 5.9998C21.7001 5.6132 21.3866 5.2998 21 5.2998H16.7ZM5.70005 6.6998V19.9998C5.70005 20.3446 5.83701 20.6752 6.08081 20.919C6.32461 21.1628 6.65527 21.2998 7.00005 21.2998H17C17.3448 21.2998 17.6755 21.1628 17.9193 20.919C18.1631 20.6752 18.3 20.3446 18.3 19.9998V6.6998H5.70005ZM10 10.2998C10.3866 10.2998 10.7 10.6132 10.7 10.9998V16.9998C10.7 17.3864 10.3866 17.6998 10 17.6998C9.61345 17.6998 9.30005 17.3864 9.30005 16.9998V10.9998C9.30005 10.6132 9.61345 10.2998 10 10.2998ZM14 10.2998C14.3866 10.2998 14.7 10.6132 14.7 10.9998V16.9998C14.7 17.3864 14.3866 17.6998 14 17.6998C13.6134 17.6998 13.3 17.3864 13.3 16.9998V10.9998C13.3 10.6132 13.6134 10.2998 14 10.2998Z" fill="#2B2B2B"/>
</svg>
